<svg xmlns="http://www.w3.org/2000/svg" xmlns:xlink="http://www.w3.org/1999/xlink" width="400" zoomAndPan="magnify" viewBox="0 0 300 149.999998" height="200" preserveAspectRatio="xMidYMid meet" version="1.0"><defs><clipPath id="56064d2ba2"><path d="M 106.699219 48 L 133 48 L 133 89 L 106.699219 89 Z M 106.699219 48 " clip-rule="nonzero"/></clipPath><clipPath id="ecff9742cc"><path d="M 110 74 L 169 74 L 169 119.097656 L 110 119.097656 Z M 110 74 " clip-rule="nonzero"/></clipPath><clipPath id="5d7fe9f09d"><path d="M 119 32 L 192.949219 32 L 192.949219 92 L 119 92 Z M 119 32 " clip-rule="nonzero"/></clipPath><clipPath id="b7dc083f4f"><path d="M 160 71 L 192.949219 71 L 192.949219 114 L 160 114 Z M 160 71 " clip-rule="nonzero"/></clipPath><clipPath id="7c72bb56b1"><path d="M 135 18.597656 L 184 18.597656 L 184 77 L 135 77 Z M 135 18.597656 " clip-rule="nonzero"/></clipPath></defs><g clip-path="url(#56064d2ba2)"><path fill="#e3e3e3" d="M 131.066406 71.488281 L 108.550781 88.484375 C 107.34375 84.539062 106.71875 80.347656 106.71875 76.019531 C 106.71875 65.667969 110.363281 56.160156 116.425781 48.707031 L 131.511719 68.164062 C 132.316406 69.210938 132.113281 70.699219 131.066406 71.488281 Z M 131.066406 71.488281 " fill-opacity="1" fill-rule="nonzero"/></g><g clip-path="url(#ecff9742cc)"><path fill="#e3e3e3" d="M 137.25 75.59375 L 168.042969 115.351562 C 162.566406 117.890625 156.441406 119.296875 150 119.296875 C 132.15625 119.296875 116.847656 108.503906 110.242188 93.097656 L 133.988281 75.171875 C 135.015625 74.386719 136.484375 74.589844 137.25 75.59375 Z M 137.25 75.59375 " fill-opacity="1" fill-rule="nonzero"/></g><g clip-path="url(#5d7fe9f09d)"><path fill="#e3e3e3" d="M 192.050781 65.847656 L 158.316406 91.324219 C 157.289062 92.089844 155.820312 91.910156 155.054688 90.882812 L 119.648438 45.183594 C 124.402344 40.492188 130.261719 36.886719 136.785156 34.8125 C 140.957031 33.484375 145.386719 32.757812 150 32.757812 C 151.046875 32.757812 152.09375 32.796875 153.121094 32.878906 C 153.058594 32.917969 153.019531 32.960938 152.980469 33 C 152.796875 33.140625 152.617188 33.300781 152.433594 33.460938 C 152.375 33.523438 152.335938 33.5625 152.273438 33.605469 C 152.214844 33.664062 152.152344 33.722656 152.074219 33.804688 C 152.011719 33.867188 151.953125 33.925781 151.890625 34.007812 C 151.832031 34.066406 151.789062 34.105469 151.730469 34.167969 C 151.628906 34.289062 151.507812 34.410156 151.410156 34.53125 C 151.367188 34.589844 151.328125 34.628906 151.289062 34.691406 C 151.226562 34.773438 151.167969 34.851562 151.105469 34.933594 C 151.003906 35.054688 150.90625 35.195312 150.824219 35.335938 C 150.785156 35.394531 150.722656 35.476562 150.683594 35.535156 C 150.582031 35.679688 150.503906 35.820312 150.421875 35.960938 C 150.382812 36.039062 150.339844 36.101562 150.300781 36.179688 C 150.261719 36.261719 150.21875 36.324219 150.179688 36.402344 C 150.140625 36.484375 150.097656 36.542969 150.078125 36.625 C 150.039062 36.707031 150 36.765625 149.976562 36.847656 C 149.9375 36.925781 149.898438 37.007812 149.878906 37.066406 C 149.816406 37.230469 149.757812 37.371094 149.695312 37.53125 C 149.675781 37.613281 149.636719 37.691406 149.617188 37.773438 C 149.554688 37.933594 149.515625 38.09375 149.476562 38.253906 C 149.453125 38.335938 149.433594 38.417969 149.414062 38.496094 C 149.375 38.660156 149.332031 38.820312 149.292969 39 C 149.253906 39.164062 149.234375 39.34375 149.214844 39.503906 C 149.191406 39.625 149.171875 39.765625 149.152344 39.886719 C 149.132812 40.007812 149.132812 40.148438 149.113281 40.269531 C 149.09375 40.390625 149.09375 40.53125 149.09375 40.652344 C 149.09375 40.773438 149.09375 40.914062 149.09375 41.054688 C 149.09375 41.175781 149.09375 41.316406 149.09375 41.457031 C 149.09375 41.578125 149.113281 41.71875 149.113281 41.839844 C 149.113281 41.960938 149.132812 42.101562 149.152344 42.222656 C 149.171875 42.34375 149.171875 42.464844 149.191406 42.566406 C 149.191406 42.585938 149.191406 42.585938 149.191406 42.605469 C 149.214844 42.765625 149.253906 42.949219 149.273438 43.109375 C 149.3125 43.269531 149.355469 43.433594 149.394531 43.613281 C 149.414062 43.695312 149.433594 43.773438 149.453125 43.855469 C 149.496094 44.015625 149.554688 44.175781 149.597656 44.339844 C 149.617188 44.417969 149.65625 44.5 149.675781 44.578125 C 149.738281 44.742188 149.796875 44.882812 149.859375 45.042969 C 149.957031 45.265625 150.058594 45.507812 150.179688 45.726562 C 150.21875 45.808594 150.261719 45.867188 150.300781 45.949219 C 150.339844 46.03125 150.382812 46.089844 150.421875 46.171875 C 150.503906 46.3125 150.582031 46.453125 150.683594 46.59375 C 150.722656 46.675781 150.765625 46.734375 150.824219 46.796875 C 150.925781 46.9375 151.003906 47.078125 151.105469 47.199219 C 151.144531 47.257812 151.207031 47.320312 151.246094 47.398438 C 151.410156 47.601562 151.570312 47.78125 151.730469 47.964844 C 151.789062 48.023438 151.832031 48.085938 151.890625 48.144531 C 152.011719 48.265625 152.113281 48.386719 152.234375 48.488281 C 152.292969 48.546875 152.355469 48.585938 152.414062 48.648438 C 152.597656 48.808594 152.777344 48.96875 152.980469 49.132812 C 153.039062 49.191406 153.101562 49.230469 153.179688 49.273438 C 153.300781 49.375 153.441406 49.472656 153.582031 49.554688 C 153.644531 49.59375 153.722656 49.65625 153.785156 49.695312 C 153.925781 49.777344 154.066406 49.875 154.207031 49.957031 C 154.289062 49.996094 154.347656 50.039062 154.429688 50.078125 C 154.511719 50.117188 154.570312 50.160156 154.652344 50.199219 C 154.871094 50.320312 155.09375 50.421875 155.335938 50.519531 C 155.496094 50.582031 155.636719 50.640625 155.796875 50.703125 C 155.878906 50.722656 155.960938 50.761719 156.039062 50.78125 C 156.203125 50.84375 156.363281 50.882812 156.523438 50.921875 C 156.605469 50.945312 156.683594 50.964844 156.765625 50.984375 C 156.925781 51.023438 157.085938 51.066406 157.269531 51.105469 C 157.429688 51.144531 157.589844 51.164062 157.773438 51.1875 C 157.792969 51.1875 157.792969 51.1875 157.8125 51.1875 C 157.933594 51.207031 158.054688 51.226562 158.15625 51.226562 C 158.277344 51.246094 158.417969 51.246094 158.539062 51.265625 C 158.660156 51.285156 158.800781 51.285156 158.921875 51.285156 C 159.042969 51.285156 159.183594 51.285156 159.324219 51.285156 C 159.445312 51.285156 159.585938 51.285156 159.726562 51.285156 C 159.847656 51.285156 159.988281 51.265625 160.109375 51.265625 C 160.230469 51.265625 160.371094 51.246094 160.492188 51.226562 C 160.613281 51.207031 160.753906 51.1875 160.875 51.164062 C 161.035156 51.144531 161.214844 51.105469 161.378906 51.085938 C 161.539062 51.042969 161.71875 51.003906 161.882812 50.964844 C 161.960938 50.945312 162.042969 50.921875 162.121094 50.902344 C 162.285156 50.863281 162.445312 50.804688 162.605469 50.761719 C 162.6875 50.742188 162.765625 50.703125 162.847656 50.683594 C 163.007812 50.621094 163.171875 50.5625 163.3125 50.5 C 163.390625 50.460938 163.472656 50.441406 163.53125 50.398438 C 163.613281 50.359375 163.671875 50.339844 163.753906 50.300781 C 163.835938 50.257812 163.894531 50.21875 163.976562 50.199219 C 164.054688 50.160156 164.117188 50.117188 164.195312 50.078125 C 164.277344 50.039062 164.339844 49.996094 164.417969 49.957031 C 164.558594 49.875 164.699219 49.796875 164.839844 49.695312 C 164.921875 49.65625 164.984375 49.613281 165.042969 49.554688 C 165.183594 49.453125 165.324219 49.375 165.445312 49.273438 C 165.566406 49.171875 165.707031 49.070312 165.828125 48.96875 C 165.949219 48.871094 166.089844 48.769531 166.191406 48.648438 C 166.25 48.585938 166.292969 48.546875 166.351562 48.488281 C 166.414062 48.425781 166.472656 48.367188 166.554688 48.304688 C 166.652344 48.203125 166.734375 48.125 166.835938 48.023438 C 166.9375 47.921875 167.035156 47.800781 167.136719 47.679688 C 167.199219 47.621094 167.238281 47.558594 167.296875 47.5 C 167.378906 47.398438 167.460938 47.296875 167.539062 47.199219 C 167.621094 47.097656 167.679688 46.996094 167.761719 46.894531 C 167.84375 46.796875 167.902344 46.695312 167.964844 46.59375 C 168.042969 46.472656 168.125 46.351562 168.183594 46.230469 C 168.203125 46.191406 168.246094 46.152344 168.265625 46.109375 C 168.324219 46.007812 168.367188 45.910156 168.425781 45.828125 C 168.445312 45.769531 168.488281 45.726562 168.507812 45.6875 C 168.566406 45.585938 168.609375 45.484375 168.648438 45.386719 C 168.789062 45.0625 168.929688 44.722656 169.050781 44.378906 C 169.089844 44.238281 169.152344 44.097656 169.191406 43.957031 C 169.210938 43.855469 169.253906 43.753906 169.273438 43.652344 C 169.3125 43.492188 169.351562 43.332031 169.394531 43.148438 C 169.433594 42.988281 169.453125 42.808594 169.472656 42.644531 C 169.554688 42.144531 169.59375 41.621094 169.59375 41.074219 C 169.59375 40.894531 169.59375 40.714844 169.574219 40.550781 C 169.574219 40.371094 169.554688 40.210938 169.535156 40.027344 C 169.515625 39.746094 169.472656 39.464844 169.414062 39.203125 C 169.394531 39.140625 169.394531 39.082031 169.371094 39 C 169.3125 38.71875 169.253906 38.457031 169.171875 38.175781 C 169.109375 37.953125 169.03125 37.753906 168.96875 37.53125 C 168.910156 37.371094 168.847656 37.230469 168.789062 37.066406 C 172.011719 38.617188 175.011719 40.570312 177.710938 42.828125 C 179.320312 44.15625 180.832031 45.628906 182.222656 47.179688 C 183.210938 48.265625 184.136719 49.414062 184.980469 50.601562 C 185.164062 50.863281 185.363281 51.125 185.546875 51.386719 C 186.210938 52.332031 186.8125 53.300781 187.398438 54.308594 C 189.492188 57.832031 191.0625 61.71875 192.050781 65.847656 Z M 192.050781 65.847656 " fill-opacity="1" fill-rule="nonzero"/></g><g clip-path="url(#b7dc083f4f)"><path fill="#e3e3e3" d="M 193.277344 76.019531 C 193.277344 91.765625 184.859375 105.5625 172.273438 113.136719 L 160.792969 98.3125 C 159.988281 97.285156 160.1875 95.796875 161.238281 95.011719 L 192.996094 71.042969 C 193.179688 72.675781 193.277344 74.328125 193.277344 76.019531 Z M 193.277344 76.019531 " fill-opacity="1" fill-rule="nonzero"/></g><g clip-path="url(#7c72bb56b1)"><path fill="#ef262c" d="M 159.324219 18.597656 C 148.832031 18.597656 139.949219 25.386719 136.785156 34.8125 C 135.980469 37.1875 135.558594 39.726562 135.558594 42.382812 C 135.558594 55.515625 159.324219 76.039062 159.324219 76.039062 L 159.34375 76.019531 L 159.363281 75.996094 C 159.382812 75.976562 159.425781 75.957031 159.464844 75.917969 C 159.484375 75.898438 159.523438 75.878906 159.566406 75.835938 C 159.6875 75.734375 159.847656 75.574219 160.070312 75.394531 C 160.128906 75.332031 160.1875 75.292969 160.25 75.234375 C 160.332031 75.171875 160.410156 75.089844 160.492188 75.011719 C 160.550781 74.949219 160.632812 74.890625 160.691406 74.828125 C 161.355469 74.226562 162.242188 73.398438 163.289062 72.414062 C 163.351562 72.351562 163.410156 72.292969 163.472656 72.230469 C 165.0625 70.699219 166.976562 68.789062 168.992188 66.613281 C 169.109375 66.492188 169.230469 66.351562 169.351562 66.210938 C 170.21875 65.261719 171.105469 64.277344 171.992188 63.25 C 172.152344 63.066406 172.3125 62.867188 172.472656 62.683594 C 172.757812 62.34375 173.039062 62.019531 173.320312 61.679688 C 173.644531 61.296875 173.964844 60.894531 174.289062 60.492188 C 174.527344 60.1875 174.75 59.90625 174.992188 59.605469 C 175.234375 59.300781 175.457031 59.019531 175.675781 58.71875 C 176.542969 57.570312 177.367188 56.402344 178.152344 55.234375 C 178.195312 55.152344 178.253906 55.09375 178.296875 55.011719 C 178.4375 54.789062 178.597656 54.550781 178.738281 54.328125 C 178.878906 54.105469 179 53.90625 179.140625 53.683594 C 179.160156 53.644531 179.203125 53.601562 179.222656 53.5625 C 179.320312 53.382812 179.441406 53.199219 179.542969 53.019531 C 179.5625 52.976562 179.605469 52.9375 179.625 52.898438 C 179.726562 52.714844 179.824219 52.554688 179.925781 52.375 C 180.027344 52.191406 180.128906 52.011719 180.226562 51.832031 C 180.289062 51.710938 180.347656 51.609375 180.410156 51.488281 C 180.753906 50.84375 181.074219 50.199219 181.355469 49.574219 C 181.457031 49.375 181.539062 49.171875 181.617188 48.96875 C 181.699219 48.808594 181.757812 48.628906 181.820312 48.464844 C 181.859375 48.367188 181.898438 48.265625 181.941406 48.164062 C 182.0625 47.84375 182.183594 47.5 182.304688 47.179688 C 182.867188 45.507812 183.167969 43.894531 183.167969 42.40625 C 183.109375 29.234375 172.453125 18.597656 159.324219 18.597656 Z M 169.472656 42.605469 C 169.453125 42.765625 169.414062 42.949219 169.394531 43.109375 C 169.351562 43.269531 169.3125 43.433594 169.273438 43.613281 C 169.253906 43.714844 169.210938 43.8125 169.191406 43.914062 C 169.152344 44.054688 169.109375 44.195312 169.050781 44.339844 C 168.929688 44.679688 168.808594 45.023438 168.648438 45.34375 C 168.609375 45.445312 168.546875 45.546875 168.507812 45.648438 C 168.488281 45.707031 168.464844 45.746094 168.425781 45.789062 C 168.386719 45.890625 168.324219 45.988281 168.265625 46.070312 C 168.246094 46.109375 168.226562 46.152344 168.183594 46.191406 C 168.105469 46.3125 168.042969 46.433594 167.964844 46.554688 C 167.902344 46.652344 167.84375 46.753906 167.761719 46.855469 C 167.679688 46.957031 167.621094 47.058594 167.539062 47.15625 C 167.460938 47.257812 167.378906 47.359375 167.296875 47.460938 C 167.257812 47.519531 167.199219 47.582031 167.136719 47.640625 C 167.035156 47.761719 166.9375 47.863281 166.835938 47.984375 C 166.753906 48.085938 166.652344 48.183594 166.554688 48.265625 C 166.492188 48.324219 166.433594 48.386719 166.351562 48.445312 C 166.292969 48.507812 166.25 48.546875 166.191406 48.609375 C 166.070312 48.730469 165.949219 48.828125 165.828125 48.929688 C 165.707031 49.03125 165.566406 49.132812 165.445312 49.230469 C 165.324219 49.332031 165.183594 49.433594 165.042969 49.515625 C 164.984375 49.554688 164.902344 49.613281 164.839844 49.65625 C 164.699219 49.753906 164.558594 49.835938 164.417969 49.917969 C 164.339844 49.957031 164.277344 49.996094 164.195312 50.039062 C 164.117188 50.078125 164.054688 50.117188 163.976562 50.160156 C 163.894531 50.199219 163.835938 50.238281 163.753906 50.257812 C 163.671875 50.300781 163.613281 50.339844 163.53125 50.359375 C 163.453125 50.398438 163.371094 50.441406 163.3125 50.460938 C 163.148438 50.519531 163.007812 50.582031 162.847656 50.640625 C 162.765625 50.660156 162.6875 50.703125 162.605469 50.722656 C 162.445312 50.78125 162.285156 50.824219 162.121094 50.863281 C 162.042969 50.882812 161.960938 50.902344 161.882812 50.921875 C 161.71875 50.964844 161.558594 51.003906 161.378906 51.042969 C 161.214844 51.085938 161.035156 51.105469 160.875 51.125 C 160.753906 51.144531 160.613281 51.164062 160.492188 51.1875 C 160.371094 51.207031 160.230469 51.207031 160.109375 51.226562 C 159.988281 51.246094 159.847656 51.246094 159.726562 51.246094 C 159.605469 51.246094 159.464844 51.246094 159.324219 51.246094 C 159.203125 51.246094 159.0625 51.246094 158.921875 51.246094 C 158.800781 51.246094 158.660156 51.226562 158.539062 51.226562 C 158.417969 51.226562 158.277344 51.207031 158.15625 51.1875 C 158.035156 51.164062 157.914062 51.164062 157.8125 51.144531 C 157.792969 51.144531 157.792969 51.144531 157.773438 51.144531 C 157.613281 51.125 157.429688 51.085938 157.269531 51.066406 C 157.109375 51.023438 156.945312 50.984375 156.765625 50.945312 C 156.683594 50.921875 156.605469 50.902344 156.523438 50.882812 C 156.363281 50.84375 156.203125 50.78125 156.039062 50.742188 C 155.960938 50.722656 155.878906 50.683594 155.796875 50.660156 C 155.636719 50.601562 155.496094 50.542969 155.335938 50.480469 C 155.113281 50.378906 154.871094 50.28125 154.652344 50.160156 C 154.570312 50.117188 154.511719 50.078125 154.429688 50.039062 C 154.347656 49.996094 154.289062 49.957031 154.207031 49.917969 C 154.066406 49.835938 153.925781 49.753906 153.785156 49.65625 C 153.703125 49.613281 153.644531 49.574219 153.582031 49.515625 C 153.441406 49.414062 153.300781 49.332031 153.179688 49.230469 C 153.121094 49.191406 153.058594 49.132812 152.980469 49.089844 C 152.777344 48.949219 152.597656 48.789062 152.414062 48.609375 C 152.355469 48.546875 152.292969 48.507812 152.234375 48.445312 C 152.113281 48.347656 151.992188 48.226562 151.890625 48.105469 C 151.832031 48.042969 151.769531 47.984375 151.730469 47.921875 C 151.570312 47.742188 151.410156 47.558594 151.246094 47.359375 C 151.1875 47.296875 151.144531 47.238281 151.105469 47.15625 C 151.003906 47.035156 150.90625 46.894531 150.824219 46.753906 C 150.785156 46.695312 150.722656 46.613281 150.683594 46.554688 C 150.582031 46.414062 150.503906 46.273438 150.421875 46.128906 C 150.382812 46.050781 150.339844 45.988281 150.300781 45.910156 C 150.261719 45.828125 150.21875 45.769531 150.179688 45.6875 C 150.058594 45.464844 149.957031 45.246094 149.859375 45.003906 C 149.796875 44.839844 149.738281 44.699219 149.675781 44.539062 C 149.65625 44.457031 149.617188 44.378906 149.597656 44.296875 C 149.535156 44.136719 149.496094 43.976562 149.453125 43.8125 C 149.433594 43.734375 149.414062 43.652344 149.394531 43.574219 C 149.355469 43.410156 149.3125 43.25 149.273438 43.070312 C 149.234375 42.90625 149.214844 42.726562 149.191406 42.566406 C 149.191406 42.546875 149.191406 42.546875 149.191406 42.527344 C 149.171875 42.40625 149.152344 42.285156 149.152344 42.183594 C 149.132812 42.0625 149.132812 41.921875 149.113281 41.800781 C 149.09375 41.679688 149.09375 41.539062 149.09375 41.417969 C 149.09375 41.296875 149.09375 41.15625 149.09375 41.015625 C 149.09375 40.894531 149.09375 40.753906 149.09375 40.613281 C 149.09375 40.492188 149.113281 40.351562 149.113281 40.230469 C 149.113281 40.109375 149.132812 39.96875 149.152344 39.847656 C 149.171875 39.726562 149.191406 39.585938 149.214844 39.464844 C 149.234375 39.304688 149.273438 39.121094 149.292969 38.960938 C 149.332031 38.800781 149.375 38.617188 149.414062 38.457031 C 149.433594 38.375 149.453125 38.296875 149.476562 38.214844 C 149.515625 38.054688 149.574219 37.894531 149.617188 37.730469 C 149.636719 37.652344 149.675781 37.570312 149.695312 37.492188 C 149.757812 37.328125 149.816406 37.167969 149.878906 37.027344 C 149.917969 36.945312 149.9375 36.867188 149.976562 36.804688 C 150.019531 36.726562 150.039062 36.664062 150.078125 36.585938 C 150.121094 36.503906 150.160156 36.441406 150.179688 36.363281 C 150.21875 36.28125 150.261719 36.222656 150.300781 36.140625 C 150.339844 36.0625 150.382812 36 150.421875 35.917969 C 150.503906 35.777344 150.582031 35.636719 150.683594 35.496094 C 150.722656 35.417969 150.765625 35.355469 150.824219 35.296875 C 150.925781 35.15625 151.003906 35.011719 151.105469 34.890625 C 151.167969 34.8125 151.226562 34.730469 151.289062 34.652344 C 151.328125 34.589844 151.367188 34.550781 151.410156 34.488281 C 151.507812 34.367188 151.609375 34.226562 151.730469 34.128906 C 151.769531 34.066406 151.832031 34.027344 151.890625 33.964844 C 151.953125 33.90625 152.011719 33.84375 152.074219 33.765625 C 152.132812 33.703125 152.195312 33.644531 152.273438 33.5625 C 152.335938 33.503906 152.375 33.460938 152.433594 33.421875 C 152.617188 33.261719 152.777344 33.101562 152.980469 32.960938 C 153.019531 32.917969 153.078125 32.878906 153.121094 32.839844 C 153.28125 32.71875 153.441406 32.617188 153.605469 32.496094 C 153.746094 32.394531 153.886719 32.316406 154.027344 32.234375 C 154.105469 32.195312 154.167969 32.152344 154.246094 32.113281 C 154.390625 32.03125 154.53125 31.953125 154.691406 31.871094 C 154.773438 31.832031 154.832031 31.789062 154.914062 31.769531 C 154.992188 31.730469 155.054688 31.691406 155.132812 31.671875 C 155.214844 31.628906 155.296875 31.589844 155.355469 31.570312 C 155.4375 31.527344 155.515625 31.507812 155.597656 31.46875 C 155.636719 31.449219 155.699219 31.429688 155.738281 31.410156 C 155.796875 31.386719 155.878906 31.347656 155.941406 31.328125 C 156.0625 31.289062 156.179688 31.246094 156.300781 31.207031 C 156.363281 31.1875 156.441406 31.167969 156.503906 31.148438 C 156.605469 31.125 156.683594 31.085938 156.785156 31.066406 C 156.867188 31.046875 156.925781 31.027344 157.007812 31.003906 C 157.085938 30.984375 157.148438 30.964844 157.230469 30.964844 C 157.328125 30.945312 157.410156 30.925781 157.511719 30.90625 C 157.511719 30.90625 157.53125 30.90625 157.53125 30.90625 C 157.613281 30.882812 157.691406 30.863281 157.792969 30.863281 C 157.875 30.84375 157.953125 30.84375 158.054688 30.824219 C 158.113281 30.824219 158.15625 30.804688 158.214844 30.804688 C 158.4375 30.785156 158.636719 30.765625 158.859375 30.742188 C 158.921875 30.742188 158.960938 30.742188 159.019531 30.742188 C 159.140625 30.742188 159.261719 30.742188 159.382812 30.742188 C 159.503906 30.742188 159.644531 30.742188 159.785156 30.742188 C 159.90625 30.742188 160.046875 30.765625 160.167969 30.765625 C 160.289062 30.765625 160.429688 30.785156 160.550781 30.804688 C 160.671875 30.824219 160.8125 30.84375 160.933594 30.863281 C 161.054688 30.882812 161.195312 30.90625 161.316406 30.925781 C 161.398438 30.945312 161.476562 30.964844 161.558594 30.984375 C 161.679688 31.003906 161.800781 31.046875 161.902344 31.066406 C 161.960938 31.085938 162.023438 31.105469 162.082031 31.105469 C 162.144531 31.125 162.222656 31.148438 162.285156 31.167969 C 162.382812 31.207031 162.503906 31.226562 162.605469 31.265625 C 162.726562 31.308594 162.847656 31.347656 162.96875 31.386719 C 163.070312 31.429688 163.191406 31.46875 163.289062 31.507812 C 163.3125 31.507812 163.351562 31.527344 163.371094 31.550781 C 163.433594 31.570312 163.511719 31.609375 163.574219 31.628906 C 163.714844 31.691406 163.875 31.769531 164.015625 31.851562 C 164.097656 31.890625 164.15625 31.933594 164.238281 31.972656 C 164.378906 32.054688 164.519531 32.132812 164.660156 32.214844 C 164.722656 32.253906 164.800781 32.292969 164.863281 32.335938 C 164.941406 32.394531 165.042969 32.433594 165.125 32.496094 C 165.203125 32.554688 165.304688 32.617188 165.386719 32.675781 C 165.464844 32.738281 165.566406 32.796875 165.648438 32.878906 C 165.726562 32.9375 165.808594 33 165.867188 33.058594 C 165.929688 33.101562 165.988281 33.160156 166.050781 33.222656 C 166.371094 33.484375 166.652344 33.785156 166.9375 34.085938 C 166.996094 34.148438 167.035156 34.1875 167.097656 34.246094 C 167.179688 34.328125 167.238281 34.429688 167.320312 34.511719 C 167.378906 34.589844 167.441406 34.652344 167.5 34.730469 C 167.558594 34.8125 167.621094 34.890625 167.679688 34.972656 C 167.742188 35.054688 167.800781 35.15625 167.863281 35.234375 C 167.902344 35.296875 167.964844 35.375 168.003906 35.4375 C 168.042969 35.496094 168.105469 35.578125 168.125 35.636719 C 168.386719 36.0625 168.609375 36.503906 168.808594 36.945312 C 168.871094 37.085938 168.929688 37.25 168.992188 37.410156 C 169.070312 37.613281 169.132812 37.832031 169.191406 38.054688 C 169.273438 38.316406 169.332031 38.597656 169.394531 38.878906 C 169.414062 38.941406 169.414062 39 169.433594 39.082031 C 169.492188 39.34375 169.535156 39.625 169.554688 39.90625 C 169.574219 40.089844 169.59375 40.25 169.59375 40.429688 C 169.59375 40.613281 169.613281 40.773438 169.613281 40.953125 C 169.59375 41.578125 169.554688 42.101562 169.472656 42.605469 Z M 169.472656 42.605469 " fill-opacity="1" fill-rule="nonzero"/></g><path fill="#bfbfbf" d="M 187.417969 54.265625 L 159.34375 75.996094 C 159.96875 75.453125 178.011719 59.726562 182.222656 47.15625 C 184.195312 49.332031 185.929688 51.730469 187.417969 54.265625 Z M 187.417969 54.265625 " fill-opacity="1" fill-rule="nonzero"/></svg>